# Alias OBJ Model File
# Exported from SketchUp, (c) 2000-2012 Trimble Navigation Limited
# File units = meters

mtllib betterUfoSmooth.mtl

g Mesh1 Model

usemtl FrontColor
v 1 0 -0
vt 39.3701 0
vn 0.707107 0 0.707107
v 0 0 -0
vt 0 0
vn -0.707107 0 0.707107
v 0.5 -0.25 -0.5
vt 19.685 -22.0085
vn 0 -1 -1.55158e-017
f 1/1/1 2/2/2 3/3/3

v 0.5 0.25 -0.5
vt 19.685 22.0085
vn 0 1 -1.55158e-017
f 1/1/1 4/4/4 2/2/2

v 1 0 -1
vt 39.3701 -35.2137
vn 0.707107 0 -0.707107
vt 19.685 -13.2051
vt 1.27079e-030 -35.2137
f 5/5/5 4/6/4 1/7/1

vt -39.3701 -35.2137
v 0 0 -1
vt 0 -35.2137
vn -0.707107 0 -0.707107
vt -19.685 -13.2051
f 5/8/5 6/9/6 4/10/4

vt -39.3701 35.2137
vt -19.685 13.2051
vt 0 35.2137
f 5/11/5 3/12/3 6/13/6

vt -3.17697e-031 35.2137
vt 19.685 13.2051
vt 39.3701 35.2137
f 1/14/1 3/15/3 5/16/5

vt -19.685 -22.0085
vt -39.3701 2.84157e-031
f 3/17/3 2/2/2 6/18/6

vt -19.685 22.0085
vt -39.3701 5.68313e-031
f 4/19/4 6/20/6 2/2/2

