# Alias OBJ Model File
# Exported from SketchUp, (c) 2000-2012 Trimble Navigation Limited
# File units = meters

mtllib halfUfo.mtl

g Mesh1 Model

usemtl FrontColor
v 0 0 -0
vt 0 0
vn 0 0.894427 -0.447214
v 1 0 -0
vt -39.3701 0
v 0.5 -0.25 -0.5
vt -19.685 -22.0085
f 1/1/1 2/2/1 3/3/1

vt 3.17697e-031 35.2137
vn -0.447214 0.894427 3.60879e-033
v 1 0 -1
vt -39.3701 35.2137
vt -19.685 13.2051
f 2/4/2 4/5/2 3/6/2

v 0 0 -1
vt 0 35.2137
vn 0 -0.894427 -0.447214
f 5/7/3 4/5/3 3/6/3

vn -0.447214 -0.894427 -3.60879e-033
vt -39.3701 2.84157e-031
f 1/1/4 5/8/4 3/3/4

